<svg id="svg" version="1.1" xmlns="http://www.w3.org/2000/svg" xmlns:xlink="http://www.w3.org/1999/xlink" width="400" height="400" viewBox="0, 0, 400,400"><g id="svgg"><path id="path0" d="M23.333 62.222 C 10.697 74.859,23.076 114.104,37.904 108.414 C 42.385 106.695,50.532 109.343,56.009 114.299 C 61.486 119.256,68.790 121.565,72.242 119.432 C 75.693 117.299,81.830 120.085,85.880 125.623 C 91.826 133.755,94.819 134.383,101.439 128.888 C 107.962 123.475,110.953 123.671,116.079 129.847 C 123.406 138.676,102.170 147.060,87.115 141.283 C 82.597 139.550,77.176 140.923,75.067 144.335 C 72.279 148.846,69.029 148.711,63.159 143.839 C 57.141 138.844,53.481 138.742,48.786 143.437 C 44.317 147.905,40.420 148.021,35.376 143.834 C 26.953 136.844,16.667 141.863,16.667 152.963 C 16.667 162.744,40.262 175.031,69.086 180.258 C 81.111 182.439,99.806 191.523,110.630 200.445 C 133.755 219.507,144.749 220.795,154.266 205.556 C 170.560 179.465,205.556 195.092,205.556 228.458 C 205.556 247.144,207.420 249.754,224.891 255.520 C 245.263 262.243,255.556 259.637,255.556 247.755 C 255.556 243.826,261.181 235.849,268.056 230.028 C 280.452 219.532,280.480 219.537,271.452 230.556 C 266.444 236.667,260.638 249.712,258.549 259.546 C 253.496 283.328,232.416 287.215,160.279 277.668 C 64.631 265.008,32.151 284.602,103.231 312.082 C 239.571 364.795,380.556 330.784,380.556 245.182 C 380.556 192.736,317.154 150.326,238.361 150.066 C 225.177 150.022,214.794 146.028,207.812 138.313 C 201.995 131.885,185.983 120.114,172.229 112.154 C 158.475 104.194,143.805 92.988,139.628 87.251 C 135.078 81.003,127.839 77.919,121.572 79.557 C 115.819 81.062,111.111 79.743,111.111 76.627 C 111.111 73.380,103.403 72.123,93.056 73.684 C 81.671 75.401,67.384 72.555,54.388 65.981 C 29.987 53.639,31.708 53.847,23.333 62.222 M155.925 210.421 C 152.666 216.510,150.000 225.630,150.000 230.689 C 150.000 235.747,144.375 244.578,137.500 250.314 L 125.000 260.741 156.749 260.926 C 192.823 261.136,202.017 252.344,198.944 220.577 C 196.779 198.200,166.314 191.009,155.925 210.421 " stroke="none" fill="#000000" fill-rule="evenodd"></path></g></svg>