<?xml version="1.0" standalone="no"?>
<!DOCTYPE svg PUBLIC "-//W3C//DTD SVG 20010904//EN"
 "http://www.w3.org/TR/2001/REC-SVG-20010904/DTD/svg10.dtd">
<svg version="1.0" xmlns="http://www.w3.org/2000/svg"
 width="72.000000pt" height="72.000000pt" viewBox="0 0 72.000000 72.000000"
 preserveAspectRatio="xMidYMid meet">

<g transform="translate(0.000000,72.000000) scale(0.100000,-0.100000)"
fill="#000000" stroke="none">
<path d="M525 668 c-16 -6 -45 -21 -62 -35 -28 -20 -33 -31 -33 -64 0 -22 -9
-58 -21 -80 l-20 -41 -24 26 c-14 15 -35 26 -49 26 -23 0 -25 -4 -23 -37 2
-38 2 -38 -35 -37 -34 1 -38 -1 -38 -23 0 -13 11 -34 25 -47 l25 -24 -27 -17
c-15 -10 -50 -20 -78 -23 -59 -5 -81 -22 -105 -78 -18 -41 -23 -77 -21 -144 1
-29 3 -32 12 -18 12 22 32 23 49 3 11 -13 16 -12 37 11 18 20 31 25 51 21 23
-5 31 0 47 23 29 43 90 74 150 74 30 1 54 6 61 15 10 12 17 12 52 -2 l42 -17
-17 42 c-14 35 -14 42 -2 52 9 7 14 31 15 62 1 59 37 132 78 153 20 11 24 19
19 42 -4 22 1 33 21 52 23 21 24 26 11 37 -20 17 -19 37 3 49 24 14 -102 13
-143 -1z"/>
</g>
</svg>
