<?xml version="1.0" standalone="no"?>
<!DOCTYPE svg PUBLIC "-//W3C//DTD SVG 20010904//EN"
 "http://www.w3.org/TR/2001/REC-SVG-20010904/DTD/svg10.dtd">
<svg version="1.0" xmlns="http://www.w3.org/2000/svg"
 width="72.000000pt" height="72.000000pt" viewBox="0 0 72.000000 72.000000"
 preserveAspectRatio="xMidYMid meet">

<g transform="translate(0.000000,72.000000) scale(0.100000,-0.100000)"
fill="#000000" stroke="none">
<path d="M80 668 c0 -22 -5 -27 -27 -30 -27 -3 -27 -4 16 -28 24 -14 66 -50
93 -81 45 -52 49 -61 55 -122 6 -65 6 -66 -21 -73 -22 -5 -33 -1 -56 21 -33
32 -110 48 -110 22 0 -9 13 -17 33 -21 19 -3 47 -20 63 -37 25 -26 33 -29 66
-24 46 8 51 -9 12 -40 -25 -20 -25 -23 -14 -63 6 -24 9 -51 6 -60 -2 -9 -7
-27 -11 -39 -5 -19 -2 -23 14 -23 25 0 37 50 28 115 -5 34 -3 44 9 49 9 3 19
4 23 2 13 -8 218 208 225 236 6 26 9 27 50 22 67 -10 116 2 116 28 0 14 -5 18
-16 14 -40 -15 -64 -17 -105 -6 -41 11 -44 11 -64 -14 -31 -39 -48 -34 -40 12
5 33 2 41 -24 66 -17 16 -33 42 -36 57 -4 19 -13 29 -25 29 -16 0 -17 -4 -8
-37 5 -21 21 -50 35 -65 19 -20 24 -33 19 -52 -6 -24 -10 -26 -66 -26 -56 0
-62 2 -121 51 -34 29 -69 65 -78 81 -9 16 -21 37 -28 46 -11 15 -12 14 -13
-10z"/>
<path d="M530 445 c-7 -8 -15 -13 -19 -10 -4 2 -31 -19 -59 -48 l-52 -53 90
-89 89 -89 16 37 c25 59 19 116 -16 171 -16 27 -28 51 -25 53 3 3 19 -6 35
-20 30 -25 87 -44 98 -33 12 11 -7 36 -28 36 -12 0 -37 14 -56 30 -38 34 -55
37 -73 15z"/>
<path d="M332 267 c-29 -29 -50 -56 -47 -59 3 -3 -1 -11 -10 -18 -23 -19 -18
-43 15 -75 17 -16 30 -39 30 -52 0 -22 24 -42 36 -30 11 11 -8 68 -33 98 -14
16 -23 32 -20 35 2 3 26 -9 53 -25 55 -35 112 -41 171 -16 l37 16 -89 89 c-49
50 -90 90 -90 90 0 0 -24 -24 -53 -53z"/>
</g>
</svg>
