<?xml version="1.0" standalone="no"?>
<!DOCTYPE svg PUBLIC "-//W3C//DTD SVG 20010904//EN"
 "http://www.w3.org/TR/2001/REC-SVG-20010904/DTD/svg10.dtd">
<svg version="1.0" xmlns="http://www.w3.org/2000/svg"
 width="72.000000pt" height="72.000000pt" viewBox="0 0 72.000000 72.000000"
 preserveAspectRatio="xMidYMid meet">

<g transform="translate(0.000000,72.000000) scale(0.100000,-0.100000)"
fill="#000000" stroke="none">
<path d="M217 635 c-14 -34 -26 -46 -52 -55 -18 -6 -43 -20 -55 -30 -15 -13
-31 -18 -45 -14 -21 5 -22 3 -23 -68 0 -85 13 -108 65 -108 18 0 33 -1 33 -3
0 -1 -4 -17 -9 -35 -6 -19 -6 -45 -1 -63 8 -26 7 -30 -6 -25 -9 3 -18 6 -20 6
-3 0 -9 11 -14 25 -9 24 -50 37 -50 15 0 -5 4 -10 9 -10 16 0 32 -61 20 -76
-9 -11 -7 -14 9 -14 11 0 23 7 26 16 5 12 9 14 20 5 7 -6 24 -11 37 -10 37 1
94 -16 92 -26 -2 -11 -17 -20 -46 -29 -19 -6 -33 -33 -23 -43 3 -4 12 -1 18 5
15 15 64 16 73 2 12 -20 25 1 14 21 -8 16 -7 25 7 40 9 10 14 22 11 26 -8 8
72 63 92 63 21 0 101 -54 98 -65 -2 -5 -16 -11 -31 -13 -30 -4 -45 -27 -27
-45 8 -8 11 -8 11 1 0 7 16 12 40 12 34 0 41 -4 46 -25 6 -26 18 -32 29 -15 8
13 62 13 70 0 12 -20 25 1 14 21 -8 16 -7 25 7 40 12 13 14 22 6 31 -7 9 -6
19 4 32 8 11 14 41 14 67 0 43 -5 52 -65 119 -56 62 -65 78 -65 111 0 38 20
69 45 69 24 0 45 -12 45 -25 0 -7 9 -23 21 -36 l20 -24 -6 30 c-8 39 -49 75
-85 75 -16 0 -41 -11 -56 -23 -22 -20 -27 -32 -27 -69 0 -45 17 -81 78 -167
29 -39 32 -76 9 -85 -17 -7 -48 10 -110 59 -31 25 -47 30 -88 30 -42 0 -60 -6
-96 -32 -77 -57 -102 -38 -54 42 31 54 71 70 158 62 l61 -5 -35 15 c-34 15
-102 13 -142 -2 -23 -9 -24 20 -2 33 13 7 14 11 4 17 -9 5 -4 14 16 31 28 22
28 23 7 24 -27 0 -29 7 -6 32 22 24 14 30 -27 18 l-34 -10 37 38 c54 56 50 88
-5 35 l-28 -27 0 27 c0 40 -13 33 -33 -18z m-132 -176 c4 -6 13 -8 20 -5 7 2
22 -2 34 -10 16 -11 21 -12 21 -3 0 10 3 10 11 2 16 -16 1 -52 -25 -59 -13 -3
-37 -4 -52 -2 -26 3 -29 7 -32 46 -3 40 9 55 23 31z m528 -294 c-1 -5 -7 -13
-15 -16 -7 -3 -24 -11 -37 -18 -13 -7 -20 -8 -17 -2 4 6 2 20 -4 31 -11 20 -9
21 32 18 24 -2 42 -7 41 -13z"/>
</g>
</svg>
