<svg id="svg" version="1.1" xmlns="http://www.w3.org/2000/svg" xmlns:xlink="http://www.w3.org/1999/xlink" width="400" height="400" viewBox="0, 0, 400,400"><g id="svgg"><path id="path0" d="M58.333 42.676 C 17.758 53.828,38.724 103.695,89.719 117.324 C 119.535 125.293,119.872 119.667,85.027 195.703 C 26.477 323.466,54.546 361.110,208.333 361.071 C 330.587 361.041,350.000 354.262,350.000 311.604 C 350.000 284.752,330.917 275.710,281.840 279.309 L 241.667 282.254 277.249 276.345 C 303.249 272.027,317.347 272.140,329.601 276.765 C 342.208 281.524,348.291 281.501,354.107 276.674 C 374.620 259.650,391.355 200.000,375.618 200.000 C 370.695 200.000,366.611 204.375,366.543 209.722 C 365.997 252.740,320.807 262.922,203.639 246.428 C 147.307 238.498,137.048 238.288,132.382 244.971 C 127.815 251.513,127.290 251.428,129.142 244.444 C 130.358 239.861,146.174 225.950,164.288 213.532 C 208.675 183.101,223.999 160.040,220.578 128.821 C 214.304 71.556,125.266 24.281,58.333 42.676 M95.278 69.444 C 95.278 72.347,92.590 75.618,89.306 76.713 C 86.021 77.808,83.333 74.537,83.333 69.444 C 83.333 64.352,86.021 61.081,89.306 62.176 C 92.590 63.271,95.278 66.542,95.278 69.444 M38.407 234.899 C 14.177 253.502,10.626 283.354,30.303 303.030 C 49.666 322.393,55.199 320.055,53.917 293.056 C 53.300 280.069,54.779 260.069,57.205 248.611 C 61.946 226.210,55.679 221.638,38.407 234.899 M136.954 287.052 C 141.946 290.918,158.096 292.701,176.838 291.454 L 208.333 289.360 177.778 294.311 C 140.144 300.410,121.798 291.577,122.979 267.927 C 123.724 253.009,123.772 252.990,126.150 266.667 C 127.477 274.306,132.339 283.479,136.954 287.052 " stroke="none" fill="#000000" fill-rule="evenodd"></path></g></svg>