<?xml version="1.0" standalone="no"?>
<!DOCTYPE svg PUBLIC "-//W3C//DTD SVG 20010904//EN"
 "http://www.w3.org/TR/2001/REC-SVG-20010904/DTD/svg10.dtd">
<svg version="1.0" xmlns="http://www.w3.org/2000/svg"
 width="72.000000pt" height="72.000000pt" viewBox="0 0 72.000000 72.000000"
 preserveAspectRatio="xMidYMid meet">

<g transform="translate(0.000000,72.000000) scale(0.100000,-0.100000)"
fill="#000000" stroke="none">
<path d="M160 629 c-124 -38 -143 -59 -64 -72 27 -5 54 -13 60 -18 7 -6 15
-40 19 -77 11 -112 30 -165 74 -204 21 -20 44 -37 51 -40 9 -3 8 -16 -6 -55
-16 -46 -21 -52 -54 -57 -19 -3 -44 -12 -55 -20 -18 -14 -4 -15 139 -16 140 0
157 2 146 15 -7 8 -18 15 -26 15 -7 0 -15 4 -18 9 -9 14 26 91 41 91 8 0 45
-29 83 -65 47 -44 77 -65 94 -65 40 0 40 18 0 78 -21 31 -39 64 -40 73 -2 30
-146 220 -189 251 -25 18 -51 47 -61 70 -20 45 -86 108 -112 107 -9 0 -46 -9
-82 -20z m250 -439 c0 -6 -7 -26 -14 -45 -13 -31 -20 -35 -50 -35 l-35 0 16
45 c14 42 18 45 49 45 19 0 34 -5 34 -10z"/>
</g>
</svg>
