<?xml version="1.0" standalone="no"?>
<!DOCTYPE svg PUBLIC "-//W3C//DTD SVG 20010904//EN"
 "http://www.w3.org/TR/2001/REC-SVG-20010904/DTD/svg10.dtd">
<svg version="1.0" xmlns="http://www.w3.org/2000/svg"
 width="72.000000pt" height="72.000000pt" viewBox="0 0 72.000000 72.000000"
 preserveAspectRatio="xMidYMid meet">

<g transform="translate(0.000000,72.000000) scale(0.100000,-0.100000)"
fill="#000000" stroke="none">
<path d="M180 635 c0 -15 -3 -16 -12 -7 -21 21 -30 13 -26 -19 6 -36 -20 -67
-71 -89 -45 -18 -39 -51 12 -63 36 -9 40 -14 88 -114 56 -119 70 -181 45 -202
-23 -19 -20 -31 9 -31 33 0 45 26 46 102 1 62 1 62 14 33 19 -41 18 -95 -2
-117 -15 -17 -15 -18 8 -18 39 0 49 18 49 92 0 64 1 68 23 68 15 0 27 -11 37
-33 9 -18 29 -38 48 -46 39 -18 40 -33 5 -60 l-28 -20 32 -1 c50 0 83 61 48
90 -23 19 -18 32 8 16 12 -7 39 -19 60 -26 39 -12 46 -29 22 -54 -22 -21 -19
-28 12 -24 19 2 29 10 33 28 4 16 12 24 23 22 26 -4 20 24 -12 61 -17 18 -39
58 -51 88 -35 94 -100 139 -203 139 -73 0 -73 0 -152 115 -62 90 -65 93 -65
70z"/>
</g>
</svg>
