<svg id="svg" version="1.1" xmlns="http://www.w3.org/2000/svg" xmlns:xlink="http://www.w3.org/1999/xlink" width="400" height="400" viewBox="0, 0, 400,400"><g id="svgg"><path id="path0" d="M273.598 30.360 C 260.605 37.760,234.772 55.513,216.191 69.810 L 182.408 95.806 203.704 118.481 L 225.000 141.156 200.881 120.133 C 162.453 86.639,128.315 67.399,100.667 63.654 C 86.550 61.742,70.565 58.950,65.146 57.450 C 50.692 53.450,57.425 93.049,78.837 137.980 L 95.613 173.182 110.610 158.813 C 129.463 140.751,133.783 140.850,150.420 159.722 L 163.889 175.000 148.894 161.797 C 140.646 154.536,130.334 149.962,125.977 151.634 C 117.030 155.067,38.019 258.157,24.920 283.488 L 16.381 300.000 48.468 299.946 C 85.959 299.882,125.455 283.674,158.242 254.897 C 172.327 242.535,177.632 239.911,173.757 247.222 C 170.518 253.333,165.299 267.708,162.159 279.167 L 156.451 300.000 175.997 300.000 C 190.550 300.000,199.518 295.743,211.111 283.333 C 229.330 263.830,231.633 263.487,250.000 277.542 C 261.159 286.082,265.533 297.251,272.252 334.363 C 283.445 396.190,296.464 399.202,298.850 340.516 L 300.477 300.477 340.516 298.850 C 396.066 296.592,395.722 284.407,339.750 271.700 C 291.847 260.825,293.499 262.304,253.448 194.444 C 236.316 165.417,227.212 147.482,233.217 154.590 C 246.147 169.897,250.273 168.013,271.549 137.089 C 292.275 106.966,301.281 76.177,299.021 43.174 L 297.222 16.904 273.598 30.360 M115.621 104.103 C 112.832 118.585,94.444 120.200,94.444 105.963 C 94.444 98.012,98.012 94.444,105.963 94.444 C 113.913 94.444,116.905 97.436,115.621 104.103 M277.778 162.536 C 249.473 169.815,247.120 174.584,260.860 196.816 C 275.343 220.250,280.092 221.222,291.920 203.171 C 308.337 178.115,300.851 156.603,277.778 162.536 M194.430 216.694 C 191.349 222.450,186.083 228.856,182.727 230.930 C 179.371 233.004,180.643 228.569,185.554 221.074 C 190.465 213.579,192.600 205.370,190.297 202.832 C 187.995 200.295,189.243 200.021,193.071 202.224 C 198.067 205.100,198.450 209.182,194.430 216.694 " stroke="none" fill="#000000" fill-rule="evenodd"></path></g></svg>