<?xml version="1.0" standalone="no"?>
<!DOCTYPE svg PUBLIC "-//W3C//DTD SVG 20010904//EN"
 "http://www.w3.org/TR/2001/REC-SVG-20010904/DTD/svg10.dtd">
<svg version="1.0" xmlns="http://www.w3.org/2000/svg"
 width="72.000000pt" height="72.000000pt" viewBox="0 0 72.000000 72.000000"
 preserveAspectRatio="xMidYMid meet">

<g transform="translate(0.000000,72.000000) scale(0.100000,-0.100000)"
fill="#000000" stroke="none">
<path d="M135 570 c-10 -11 -24 -20 -31 -20 -7 0 -25 -5 -39 -12 -52 -24 -29
-62 118 -195 64 -58 68 -64 62 -93 -4 -17 -15 -36 -26 -43 -33 -20 -21 -28 38
-25 53 3 59 5 71 33 28 65 38 80 70 98 37 22 165 36 175 20 4 -7 -22 -12 -69
-15 -76 -5 -113 -21 -138 -61 -8 -13 -6 -21 7 -34 15 -15 35 -18 117 -18 122
0 118 -18 -5 -24 -56 -2 -88 -8 -96 -17 -18 -22 11 -27 108 -21 94 5 121 18
161 77 30 44 29 78 -3 90 -13 5 -33 27 -44 49 -28 55 -58 74 -157 105 -47 15
-107 40 -133 57 -27 16 -55 29 -63 29 -8 0 -23 9 -33 20 -10 11 -30 20 -45 20
-15 0 -35 -9 -45 -20z m73 -31 c3 -28 -16 -43 -43 -33 -15 6 -21 45 -8 58 16
16 48 1 51 -25z"/>
</g>
</svg>
