<?xml version="1.0" standalone="no"?>
<!DOCTYPE svg PUBLIC "-//W3C//DTD SVG 20010904//EN"
 "http://www.w3.org/TR/2001/REC-SVG-20010904/DTD/svg10.dtd">
<svg version="1.0" xmlns="http://www.w3.org/2000/svg"
 width="72.000000pt" height="72.000000pt" viewBox="0 0 72.000000 72.000000"
 preserveAspectRatio="xMidYMid meet">

<g transform="translate(0.000000,72.000000) scale(0.100000,-0.100000)"
fill="#000000" stroke="none">
<path d="M200 658 c-18 -13 -42 -40 -53 -62 -11 -21 -36 -55 -54 -75 -57 -60
-67 -79 -53 -96 7 -9 20 -13 29 -11 74 21 74 21 114 -47 20 -35 37 -66 37 -69
0 -3 -10 -8 -21 -11 -44 -12 -5 -137 42 -137 14 0 10 26 -6 40 -18 15 -20 50
-2 50 6 0 22 3 34 6 30 8 55 -43 57 -118 1 -48 4 -58 19 -58 19 0 19 5 17 113
l-1 67 55 0 c54 0 57 -1 82 -40 26 -39 29 -77 9 -122 -5 -14 -2 -18 13 -18 23
0 55 67 54 113 -1 33 3 33 45 1 29 -22 33 -31 33 -70 0 -61 26 -61 35 0 8 52
1 80 -31 122 -31 40 -50 128 -35 161 16 34 14 75 -5 101 -23 34 -34 27 -34
-23 0 -47 -7 -53 -43 -34 -16 9 -40 9 -98 -1 -82 -13 -100 -8 -159 40 -23 19
-24 21 -7 31 29 17 19 29 -27 29 -25 0 -48 5 -51 10 -4 6 9 26 28 45 69 69
167 32 167 -62 0 -20 3 -24 11 -16 7 7 12 31 12 54 0 36 -6 48 -36 76 -32 29
-44 33 -90 33 -40 0 -63 -6 -87 -22z"/>
</g>
</svg>
