<?xml version="1.0" standalone="no"?>
<!DOCTYPE svg PUBLIC "-//W3C//DTD SVG 20010904//EN"
 "http://www.w3.org/TR/2001/REC-SVG-20010904/DTD/svg10.dtd">
<svg version="1.0" xmlns="http://www.w3.org/2000/svg"
 width="72.000000pt" height="72.000000pt" viewBox="0 0 72.000000 72.000000"
 preserveAspectRatio="xMidYMid meet">

<g transform="translate(0.000000,72.000000) scale(0.100000,-0.100000)"
fill="#000000" stroke="none">
<path d="M570 619 c-30 -16 -64 -38 -75 -48 -35 -32 -40 -31 -170 4 -148 41
-193 43 -246 13 -59 -33 -54 -62 24 -134 34 -33 80 -68 100 -79 30 -16 37 -24
32 -40 -4 -11 -9 -41 -12 -67 -5 -46 -4 -48 19 -48 32 0 78 42 78 71 0 16 4
20 18 16 9 -4 45 -14 79 -24 83 -24 133 -71 133 -124 0 -36 -2 -38 -55 -58
-69 -26 -95 -42 -95 -59 0 -9 7 -11 21 -7 12 4 75 7 140 6 76 0 119 4 119 10
0 6 -15 24 -33 40 l-34 30 20 57 c27 82 10 185 -45 265 -24 34 -19 64 27 137
48 78 40 86 -45 39z m-295 -75 c15 -15 15 -18 1 -32 -13 -13 -21 -14 -56 -3
-45 13 -51 27 -17 41 34 13 54 12 72 -6z m-87 -65 c35 -6 73 -20 85 -29 19
-15 20 -21 9 -44 -10 -23 -9 -27 16 -40 74 -37 98 -39 156 -12 62 29 84 32
111 12 24 -17 13 -46 -17 -46 -38 0 -50 -13 -33 -36 21 -28 18 -37 -8 -20 -12
9 -54 25 -92 37 -115 35 -279 129 -326 185 -13 16 -12 17 11 11 14 -3 53 -11
88 -18z"/>
</g>
</svg>
