<?xml version="1.0" standalone="no"?>
<!DOCTYPE svg PUBLIC "-//W3C//DTD SVG 20010904//EN"
 "http://www.w3.org/TR/2001/REC-SVG-20010904/DTD/svg10.dtd">
<svg version="1.0" xmlns="http://www.w3.org/2000/svg"
 width="72.000000pt" height="72.000000pt" viewBox="0 0 72.000000 72.000000"
 preserveAspectRatio="xMidYMid meet">

<g transform="translate(0.000000,72.000000) scale(0.100000,-0.100000)"
fill="#000000" stroke="none">
<path d="M204 636 c-28 -12 -35 -25 -68 -124 -20 -60 -39 -133 -43 -161 -5
-42 -8 -49 -19 -40 -8 6 -14 21 -14 33 0 11 -5 28 -10 36 -7 11 -10 5 -10 -23
0 -39 13 -73 35 -92 6 -5 17 -29 23 -51 13 -46 25 -58 63 -68 35 -8 83 28 59
43 -9 7 -19 6 -27 -1 -22 -18 -43 -1 -43 35 0 26 6 36 25 45 14 6 32 29 41 49
26 60 30 67 42 71 14 4 27 -79 17 -115 -4 -16 -10 -50 -15 -78 -4 -27 -11 -58
-15 -67 -6 -16 -1 -18 34 -18 36 0 41 3 41 23 0 13 8 46 17 73 l18 49 6 -50
c4 -35 2 -57 -9 -72 -14 -23 -14 -23 30 -23 l45 0 7 65 c8 83 13 95 40 95 42
0 59 -75 30 -131 l-15 -30 43 3 c42 3 43 4 49 45 3 24 8 45 11 49 12 11 19
-55 8 -75 -10 -20 -8 -21 32 -21 l43 0 2 162 c1 124 -2 168 -13 190 -18 36
-219 168 -255 168 -14 0 -40 -5 -57 -11 -27 -9 -35 -8 -58 10 -31 24 -47 25
-90 7z m141 -73 c42 -47 42 -63 0 -100 -45 -39 -51 -40 -66 -10 -11 20 -11 21
5 8 15 -13 21 -11 48 16 26 26 29 33 18 52 -6 12 -26 31 -43 41 -28 18 -29 20
-10 20 12 0 34 -12 48 -27z m-165 -216 c0 -7 -7 -22 -15 -33 -13 -17 -14 -16
-4 14 11 33 19 41 19 19z"/>
</g>
</svg>
