<?xml version="1.0" standalone="no"?>
<!DOCTYPE svg PUBLIC "-//W3C//DTD SVG 20010904//EN"
 "http://www.w3.org/TR/2001/REC-SVG-20010904/DTD/svg10.dtd">
<svg version="1.0" xmlns="http://www.w3.org/2000/svg"
 width="72.000000pt" height="72.000000pt" viewBox="0 0 72.000000 72.000000"
 preserveAspectRatio="xMidYMid meet">

<g transform="translate(0.000000,72.000000) scale(0.100000,-0.100000)"
fill="#000000" stroke="none">
<path d="M485 666 c-16 -8 -57 -30 -89 -50 -33 -20 -70 -36 -82 -36 -12 0 -38
16 -57 35 -19 19 -42 35 -50 35 -28 0 -30 -21 -3 -49 33 -34 33 -52 0 -85 -33
-33 -51 -33 -85 0 -28 27 -49 25 -49 -3 0 -8 16 -31 35 -50 43 -43 44 -65 4
-129 -54 -84 -69 -125 -69 -192 0 -66 12 -102 33 -101 7 0 26 21 43 47 42 64
146 118 261 134 74 11 85 10 124 -7 70 -32 117 -72 149 -127 31 -56 41 -43 15
20 -20 48 -47 75 -119 124 l-58 40 7 57 c16 128 71 236 145 282 44 27 50 43
21 59 -28 14 -140 12 -176 -4z"/>
</g>
</svg>
