<?xml version="1.0" standalone="no"?>
<!DOCTYPE svg PUBLIC "-//W3C//DTD SVG 20010904//EN"
 "http://www.w3.org/TR/2001/REC-SVG-20010904/DTD/svg10.dtd">
<svg version="1.0" xmlns="http://www.w3.org/2000/svg"
 width="72.000000pt" height="72.000000pt" viewBox="0 0 72.000000 72.000000"
 preserveAspectRatio="xMidYMid meet">

<g transform="translate(0.000000,72.000000) scale(0.100000,-0.100000)"
fill="#000000" stroke="none">
<path d="M187 643 c-15 -14 -5 -33 24 -49 39 -20 134 -20 209 1 87 23 127 20
161 -14 43 -44 39 -101 -13 -158 -18 -20 -22 -20 -54 -7 -45 19 -112 18 -190
-3 l-64 -17 -26 27 c-30 32 -44 33 -101 6 -28 -13 -43 -27 -43 -39 0 -11 -5
-30 -11 -44 -18 -38 2 -56 63 -56 l50 0 -7 -42 c-9 -54 -50 -147 -73 -164 -15
-12 -14 -13 10 -14 30 0 59 33 110 129 16 28 32 51 36 51 5 0 18 -17 30 -39
24 -42 29 -110 10 -129 -9 -9 -6 -12 15 -12 35 0 42 27 34 130 -6 74 -5 78 15
84 28 7 34 1 19 -18 -9 -11 -10 -38 -5 -95 6 -71 5 -81 -10 -81 -9 0 -16 -5
-16 -11 0 -6 14 -9 32 -7 37 3 45 22 47 100 1 38 6 50 28 68 l28 21 8 -23 c18
-46 25 -53 78 -83 42 -24 55 -37 59 -60 l5 -30 18 25 c27 39 21 57 -32 92
l-50 33 -3 80 c-3 74 -1 82 23 112 58 68 61 149 9 202 -42 42 -88 47 -200 20
-99 -23 -160 -21 -189 5 -19 18 -25 19 -34 9z"/>
</g>
</svg>
