<?xml version="1.0" standalone="no"?>
<!DOCTYPE svg PUBLIC "-//W3C//DTD SVG 20010904//EN"
 "http://www.w3.org/TR/2001/REC-SVG-20010904/DTD/svg10.dtd">
<svg version="1.0" xmlns="http://www.w3.org/2000/svg"
 width="72.000000pt" height="72.000000pt" viewBox="0 0 72.000000 72.000000"
 preserveAspectRatio="xMidYMid meet">

<g transform="translate(0.000000,72.000000) scale(0.100000,-0.100000)"
fill="#000000" stroke="none">
<path d="M258 653 c47 -67 37 -98 -53 -171 -59 -48 -60 -49 -58 -96 3 -48 22
-96 53 -131 16 -18 17 -28 8 -87 -8 -55 -14 -68 -28 -68 -23 0 -45 -26 -30
-35 6 -4 14 -4 17 -1 3 3 12 1 20 -5 9 -9 13 -8 13 0 0 6 14 11 30 11 17 0 30
-5 30 -12 0 -9 3 -9 9 1 8 12 12 12 25 2 12 -10 16 -11 16 -1 0 9 17 11 60 8
46 -3 60 -1 60 9 0 8 -7 16 -15 19 -16 7 -21 44 -5 44 5 0 38 -16 73 -35 59
-32 123 -46 140 -29 3 3 -5 23 -19 44 -21 31 -37 42 -92 60 -178 60 -260 135
-236 218 6 24 8 22 15 -23 6 -40 16 -57 46 -86 35 -32 149 -88 215 -104 l28
-7 -25 56 c-49 112 -86 177 -121 216 -27 30 -39 55 -49 105 -8 36 -24 79 -35
95 -18 26 -28 30 -66 30 l-45 0 19 -27z m56 -505 c-7 -46 -11 -54 -19 -46 -9
8 6 88 16 88 5 0 6 -19 3 -42z"/>
<path d="M158 653 c-14 -9 -31 -27 -37 -40 -14 -30 -14 -103 -1 -123 5 -8 10
-11 10 -6 0 5 6 4 13 -2 10 -9 27 0 70 34 64 49 69 67 36 120 -23 38 -49 43
-91 17z m22 -79 c0 -14 -4 -23 -10 -19 -5 3 -10 15 -10 26 0 10 5 19 10 19 6
0 10 -12 10 -26z"/>
</g>
</svg>
