<?xml version="1.0" standalone="no"?>
<!DOCTYPE svg PUBLIC "-//W3C//DTD SVG 20010904//EN"
 "http://www.w3.org/TR/2001/REC-SVG-20010904/DTD/svg10.dtd">
<svg version="1.0" xmlns="http://www.w3.org/2000/svg"
 width="72.000000pt" height="72.000000pt" viewBox="0 0 72.000000 72.000000"
 preserveAspectRatio="xMidYMid meet">

<g transform="translate(0.000000,72.000000) scale(0.100000,-0.100000)"
fill="#000000" stroke="none">
<path d="M135 670 c-4 -6 -21 -17 -40 -24 -32 -14 -36 -20 -50 -81 l-7 -30 26
24 c26 24 26 24 26 3 0 -36 31 -102 54 -115 11 -6 56 -12 99 -13 42 0 79 -3
82 -6 7 -7 -16 -72 -29 -80 -6 -4 -23 -8 -38 -8 -16 0 -28 -4 -28 -10 0 -5 30
-10 66 -12 l65 -3 -32 -33 c-42 -43 -93 -69 -199 -102 -58 -18 -86 -31 -88
-43 -4 -20 34 -37 84 -37 31 0 34 -2 25 -18 -7 -13 -6 -23 1 -30 17 -17 115
-15 178 4 49 14 54 14 62 0 11 -20 69 -21 107 -2 32 17 101 90 101 109 0 6 5
4 11 -6 16 -27 43 -6 58 45 18 60 17 192 -2 259 -21 71 -66 132 -125 170 -59
37 -101 49 -179 49 -52 0 -66 -4 -93 -26 -17 -15 -39 -43 -49 -62 l-18 -36
-17 32 c-9 17 -24 36 -33 41 -16 10 -16 11 5 17 12 3 22 13 22 20 0 16 -36 19
-45 4z m232 -52 c34 -38 43 -64 43 -125 0 -96 -29 -172 -59 -154 -12 8 -13 16
-2 51 7 22 18 44 26 46 38 15 25 130 -20 178 -13 14 -21 26 -16 26 4 0 17 -10
28 -22z m168 -101 c0 -26 -20 -25 -23 2 -3 16 1 22 10 19 7 -3 13 -12 13 -21z
m-57 -78 c-5 -35 -28 -36 -28 -1 0 16 3 32 7 35 11 12 25 -9 21 -34z m147 20
c8 -23 -7 -45 -24 -35 -12 8 -15 39 -4 49 12 12 22 7 28 -14z m-87 -88 c5 -29
-13 -50 -29 -34 -15 15 -3 66 14 60 7 -2 14 -14 15 -26z m102 -67 c0 -24 -19
-54 -34 -54 -19 0 -28 28 -16 51 13 23 50 26 50 3z m-180 -23 c0 -25 -40 -55
-54 -41 -6 6 -5 19 2 35 14 30 52 35 52 6z m-140 -115 c0 -8 -12 -24 -26 -35
-49 -38 -102 -18 -56 21 33 29 82 37 82 14z m215 4 c10 -17 -23 -60 -45 -60
-26 0 -26 24 0 50 22 22 36 25 45 10z"/>
</g>
</svg>
