<?xml version="1.0" standalone="no"?>
<!DOCTYPE svg PUBLIC "-//W3C//DTD SVG 20010904//EN"
 "http://www.w3.org/TR/2001/REC-SVG-20010904/DTD/svg10.dtd">
<svg version="1.0" xmlns="http://www.w3.org/2000/svg"
 width="72.000000pt" height="72.000000pt" viewBox="0 0 72.000000 72.000000"
 preserveAspectRatio="xMidYMid meet">

<g transform="translate(0.000000,72.000000) scale(0.100000,-0.100000)"
fill="#000000" stroke="none">
<path d="M284 591 c-17 -10 -44 -34 -60 -53 -20 -24 -41 -37 -67 -42 -52 -10
-117 -72 -117 -113 0 -34 13 -48 53 -58 15 -4 27 -13 27 -19 0 -7 10 -33 23
-59 16 -32 21 -51 14 -62 -23 -42 27 -62 61 -25 l19 21 6 -21 c7 -26 40 -26
64 -1 11 11 35 21 58 23 l40 3 -3 42 c-2 23 2 51 8 63 16 29 24 19 10 -12 -9
-19 -8 -33 3 -60 14 -32 13 -36 -5 -47 -34 -21 -9 -31 77 -31 61 0 88 4 99 15
8 8 25 15 38 15 32 0 48 18 48 53 0 40 -16 66 -38 61 -13 -4 -21 4 -30 30 -29
80 -123 123 -247 113 -80 -7 -95 2 -47 27 35 18 58 44 71 79 10 25 9 29 -8 34
-11 3 -21 13 -24 24 -6 24 -33 24 -73 0z"/>
</g>
</svg>
