<?xml version="1.0" standalone="no"?>
<!DOCTYPE svg PUBLIC "-//W3C//DTD SVG 20010904//EN"
 "http://www.w3.org/TR/2001/REC-SVG-20010904/DTD/svg10.dtd">
<svg version="1.0" xmlns="http://www.w3.org/2000/svg"
 width="72.000000pt" height="72.000000pt" viewBox="0 0 72.000000 72.000000"
 preserveAspectRatio="xMidYMid meet">

<g transform="translate(0.000000,72.000000) scale(0.100000,-0.100000)"
fill="#000000" stroke="none">
<path d="M182 594 c-34 -23 -44 -48 -27 -70 13 -18 14 -18 39 9 14 15 34 27
45 27 20 0 51 -24 51 -40 0 -17 -31 -39 -46 -33 -20 8 -11 29 11 25 10 -2 15
2 13 10 -6 19 -43 22 -57 4 -37 -44 24 -95 77 -65 22 12 28 23 30 61 3 40 -1
49 -24 67 -32 25 -81 27 -112 5z"/>
<path d="M107 548 c-10 -7 -23 -23 -30 -34 -7 -12 -20 -33 -31 -48 -15 -21
-16 -29 -6 -41 22 -26 47 -18 54 18 3 17 15 39 24 47 13 11 17 23 13 43 -5 25
-8 27 -24 15z"/>
<path d="M126 474 c-22 -21 -20 -66 4 -96 33 -42 43 -78 27 -97 -9 -10 -12
-31 -9 -59 3 -35 10 -45 33 -58 34 -17 39 -5 14 42 -13 26 -13 29 0 32 8 2 28
-6 43 -17 16 -11 40 -23 55 -26 22 -6 27 -14 33 -51 3 -24 4 -51 0 -59 -4 -10
1 -15 14 -15 21 0 24 12 20 78 l-2 33 74 -3 73 -3 -1 -52 c-2 -45 1 -53 16
-53 14 0 21 13 31 55 13 57 19 62 63 45 23 -8 26 -15 26 -55 0 -37 3 -45 19
-45 34 0 42 93 11 133 -16 20 -20 40 -20 94 0 121 -58 172 -193 173 -38 0 -78
5 -89 11 -17 9 -24 7 -42 -15 -13 -17 -35 -29 -58 -33 -32 -5 -41 -1 -68 26
-35 35 -51 38 -74 15z"/>
</g>
</svg>
