<?xml version="1.0" standalone="no"?>
<!DOCTYPE svg PUBLIC "-//W3C//DTD SVG 20010904//EN"
 "http://www.w3.org/TR/2001/REC-SVG-20010904/DTD/svg10.dtd">
<svg version="1.0" xmlns="http://www.w3.org/2000/svg"
 width="72.000000pt" height="72.000000pt" viewBox="0 0 72.000000 72.000000"
 preserveAspectRatio="xMidYMid meet">

<g transform="translate(0.000000,72.000000) scale(0.100000,-0.100000)"
fill="#000000" stroke="none">
<path d="M84 655 c-34 -52 2 -165 60 -189 40 -16 53 -33 37 -49 -8 -8 -19 -5
-41 11 -16 13 -30 18 -30 12 0 -5 -8 -10 -17 -10 -13 0 -14 -3 -6 -11 6 -6 9
-17 7 -23 -3 -7 11 -17 29 -24 44 -16 57 -15 77 3 15 14 22 10 71 -39 37 -36
71 -60 107 -72 47 -17 68 -34 42 -34 -6 0 -15 -11 -20 -25 -5 -14 -17 -25 -25
-25 -19 0 -12 -35 11 -58 18 -17 30 -9 54 37 16 32 37 51 56 51 2 0 4 -17 4
-38 0 -69 -43 -89 -157 -71 -83 12 -139 4 -178 -25 -18 -14 -14 -15 46 -9 46
4 82 1 121 -11 160 -46 278 11 278 135 0 26 -4 59 -10 73 -11 31 4 73 30 81
49 16 63 86 15 81 -22 -2 -85 -58 -85 -76 0 -7 -154 93 -180 117 -3 2 3 9 13
14 9 6 17 21 17 34 0 13 5 27 10 30 15 9 12 25 -4 25 -8 0 -16 5 -18 11 -7 22
-37 -4 -40 -34 -5 -53 -30 -39 -58 33 -31 77 -65 100 -147 100 -45 0 -55 -4
-69 -25z"/>
</g>
</svg>
