<?xml version="1.0" standalone="no"?>
<!DOCTYPE svg PUBLIC "-//W3C//DTD SVG 20010904//EN"
 "http://www.w3.org/TR/2001/REC-SVG-20010904/DTD/svg10.dtd">
<svg version="1.0" xmlns="http://www.w3.org/2000/svg"
 width="72.000000pt" height="72.000000pt" viewBox="0 0 72.000000 72.000000"
 preserveAspectRatio="xMidYMid meet">

<g transform="translate(0.000000,72.000000) scale(0.100000,-0.100000)"
fill="#000000" stroke="none">
<path d="M391 654 c-53 -27 -83 -66 -65 -84 5 -5 28 -13 51 -18 37 -9 47 -6
100 24 32 18 65 34 74 34 9 0 27 9 40 20 24 20 24 20 5 35 -34 26 -142 20
-205 -11z"/>
<path d="M110 610 c-41 -41 -15 -113 50 -140 30 -12 33 -11 67 23 34 34 35 37
23 67 -27 65 -99 91 -140 50z"/>
<path d="M278 511 c-47 -30 -98 -101 -98 -138 0 -73 70 -171 145 -204 90 -39
212 -32 237 14 19 35 14 155 -9 207 -26 59 -86 116 -142 135 -62 21 -81 19
-133 -14z m130 -71 c31 -19 93 -103 91 -124 0 -6 -6 -3 -12 8 -29 44 -70 91
-99 113 -39 28 -25 30 20 3z m-26 -196 c17 -9 28 -18 25 -21 -15 -14 -112 58
-133 100 -15 29 -12 28 31 -16 27 -26 61 -55 77 -63z"/>
<path d="M86 368 c-43 -66 -58 -150 -41 -228 8 -37 34 -37 51 0 6 14 27 57 46
95 31 63 34 74 26 113 -8 38 -12 42 -38 42 -20 0 -35 -8 -44 -22z"/>
<path d="M590 262 c0 -53 2 -60 25 -70 14 -7 35 -12 47 -12 19 0 20 4 16 50
-6 57 -30 90 -65 90 -21 0 -23 -4 -23 -58z"/>
<path d="M400 107 c0 -30 29 -57 72 -66 65 -14 83 6 56 64 -10 23 -17 25 -70
25 -54 0 -58 -2 -58 -23z"/>
</g>
</svg>
